# xmcd
#
# Track frame offsets:
#	150
#	18783
#	34729
#
# Disc length: 693 seconds
#
# Revision: 0
# Processed by: cddbd v1.5.2PL0 Copyright (c) Steve Scherf et al.
# Submitted via: audiograbber 1.83.01
#
DISCID=1602b303
DTITLE=Jennifer Brown - Tuesday Afternoon
DYEAR=1998
DGENRE=Soul
TTITLE0=Tuesday Afternoon
TTITLE1=Feel That Natural (Demo)
TTITLE2=Tuesday Afternoon (Acoustic Version)
EXTD=
EXTT0=
EXTT1=
EXTT2=
PLAYORDER=
